<?xml version="1.0" encoding="UTF-8" standalone="no"?>
<!DOCTYPE svg PUBLIC "-//W3C//DTD SVG 1.1//EN"
 "http://www.w3.org/Graphics/SVG/1.1/DTD/svg11.dtd">
<!-- Generated by graphviz version 2.40.1 (20161225.0304)
 -->
<!-- Title: %3 Pages: 1 -->
<svg width="608pt" height="404pt"
 viewBox="0.00 0.00 607.74 404.00" xmlns="http://www.w3.org/2000/svg" xmlns:xlink="http://www.w3.org/1999/xlink">
<g id="graph0" class="graph" transform="scale(1 1) rotate(0) translate(4 400)">
<title>%3</title>
<polygon fill="#ffffff" stroke="transparent" points="-4,4 -4,-400 603.7423,-400 603.7423,4 -4,4"/>
<!-- [root] aws_instance.terraform_server -->
<g id="node1" class="node">
<title>[root] aws_instance.terraform_server</title>
<polygon fill="none" stroke="#000000" points="599.841,-252 411.4463,-252 411.4463,-216 599.841,-216 599.841,-252"/>
<text text-anchor="middle" x="505.6437" y="-229.8" font-family="Times,serif" font-size="14.00" fill="#000000">aws_instance.terraform_server</text>
</g>
<!-- [root] aws_subnet.subnet2 -->
<g id="node4" class="node">
<title>[root] aws_subnet.subnet2</title>
<polygon fill="none" stroke="#000000" points="528.0202,-180 399.2671,-180 399.2671,-144 528.0202,-144 528.0202,-180"/>
<text text-anchor="middle" x="463.6437" y="-157.8" font-family="Times,serif" font-size="14.00" fill="#000000">aws_subnet.subnet2</text>
</g>
<!-- [root] aws_instance.terraform_server&#45;&gt;[root] aws_subnet.subnet2 -->
<g id="edge1" class="edge">
<title>[root] aws_instance.terraform_server&#45;&gt;[root] aws_subnet.subnet2</title>
<path fill="none" stroke="#000000" d="M495.0453,-215.8314C490.3559,-207.7925 484.7408,-198.1666 479.5639,-189.2918"/>
<polygon fill="#000000" stroke="#000000" points="482.4467,-187.2875 474.3847,-180.4133 476.4003,-190.8146 482.4467,-187.2875"/>
</g>
<!-- [root] aws_security_group.subnetsecurity -->
<g id="node2" class="node">
<title>[root] aws_security_group.subnetsecurity</title>
<polygon fill="none" stroke="#000000" points="247.2648,-252 34.0225,-252 34.0225,-216 247.2648,-216 247.2648,-252"/>
<text text-anchor="middle" x="140.6437" y="-229.8" font-family="Times,serif" font-size="14.00" fill="#000000">aws_security_group.subnetsecurity</text>
</g>
<!-- [root] aws_vpc.terraform_vpc -->
<g id="node5" class="node">
<title>[root] aws_vpc.terraform_vpc</title>
<polygon fill="none" stroke="#000000" points="403.7,-108 255.5873,-108 255.5873,-72 403.7,-72 403.7,-108"/>
<text text-anchor="middle" x="329.6437" y="-85.8" font-family="Times,serif" font-size="14.00" fill="#000000">aws_vpc.terraform_vpc</text>
</g>
<!-- [root] aws_security_group.subnetsecurity&#45;&gt;[root] aws_vpc.terraform_vpc -->
<g id="edge2" class="edge">
<title>[root] aws_security_group.subnetsecurity&#45;&gt;[root] aws_vpc.terraform_vpc</title>
<path fill="none" stroke="#000000" d="M164.5806,-215.7623C198.3794,-190.0108 260.1572,-142.942 297.7975,-114.2637"/>
<polygon fill="#000000" stroke="#000000" points="300.0679,-116.9341 305.901,-108.0896 295.8255,-111.3661 300.0679,-116.9341"/>
</g>
<!-- [root] aws_subnet.subnet1 -->
<g id="node3" class="node">
<title>[root] aws_subnet.subnet1</title>
<polygon fill="none" stroke="#000000" points="394.0202,-252 265.2671,-252 265.2671,-216 394.0202,-216 394.0202,-252"/>
<text text-anchor="middle" x="329.6437" y="-229.8" font-family="Times,serif" font-size="14.00" fill="#000000">aws_subnet.subnet1</text>
</g>
<!-- [root] aws_subnet.subnet1&#45;&gt;[root] aws_vpc.terraform_vpc -->
<g id="edge3" class="edge">
<title>[root] aws_subnet.subnet1&#45;&gt;[root] aws_vpc.terraform_vpc</title>
<path fill="none" stroke="#000000" d="M329.6437,-215.7623C329.6437,-191.201 329.6437,-147.2474 329.6437,-118.3541"/>
<polygon fill="#000000" stroke="#000000" points="333.1438,-118.0896 329.6437,-108.0896 326.1438,-118.0897 333.1438,-118.0896"/>
</g>
<!-- [root] aws_subnet.subnet2&#45;&gt;[root] aws_vpc.terraform_vpc -->
<g id="edge4" class="edge">
<title>[root] aws_subnet.subnet2&#45;&gt;[root] aws_vpc.terraform_vpc</title>
<path fill="none" stroke="#000000" d="M429.8298,-143.8314C412.373,-134.4516 390.895,-122.9112 372.3084,-112.9244"/>
<polygon fill="#000000" stroke="#000000" points="373.9123,-109.8129 363.4467,-108.1628 370.599,-115.9792 373.9123,-109.8129"/>
</g>
<!-- [root] provider.aws -->
<g id="node6" class="node">
<title>[root] provider.aws</title>
<polygon fill="none" stroke="#000000" points="329.6437,-36 251.0353,-18 329.6437,0 408.252,-18 329.6437,-36"/>
<text text-anchor="middle" x="329.6437" y="-13.8" font-family="Times,serif" font-size="14.00" fill="#000000">provider.aws</text>
</g>
<!-- [root] aws_vpc.terraform_vpc&#45;&gt;[root] provider.aws -->
<g id="edge5" class="edge">
<title>[root] aws_vpc.terraform_vpc&#45;&gt;[root] provider.aws</title>
<path fill="none" stroke="#000000" d="M329.6437,-71.8314C329.6437,-64.131 329.6437,-54.9743 329.6437,-46.4166"/>
<polygon fill="#000000" stroke="#000000" points="333.1438,-46.4132 329.6437,-36.4133 326.1438,-46.4133 333.1438,-46.4132"/>
</g>
<!-- [root] meta.count&#45;boundary (EachMode fixup) -->
<g id="node7" class="node">
<title>[root] meta.count&#45;boundary (EachMode fixup)</title>
<ellipse fill="none" stroke="#000000" cx="174.6437" cy="-306" rx="174.7874" ry="18"/>
<text text-anchor="middle" x="174.6437" y="-301.8" font-family="Times,serif" font-size="14.00" fill="#000000">[root] meta.count&#45;boundary (EachMode fixup)</text>
</g>
<!-- [root] meta.count&#45;boundary (EachMode fixup)&#45;&gt;[root] aws_instance.terraform_server -->
<g id="edge6" class="edge">
<title>[root] meta.count&#45;boundary (EachMode fixup)&#45;&gt;[root] aws_instance.terraform_server</title>
<path fill="none" stroke="#000000" d="M249.7527,-289.6621C298.1343,-279.138 361.3828,-265.38 412.893,-254.1754"/>
<polygon fill="#000000" stroke="#000000" points="413.6715,-257.588 422.699,-252.0423 412.1835,-250.7479 413.6715,-257.588"/>
</g>
<!-- [root] meta.count&#45;boundary (EachMode fixup)&#45;&gt;[root] aws_security_group.subnetsecurity -->
<g id="edge7" class="edge">
<title>[root] meta.count&#45;boundary (EachMode fixup)&#45;&gt;[root] aws_security_group.subnetsecurity</title>
<path fill="none" stroke="#000000" d="M166.064,-287.8314C162.3078,-279.8771 157.8179,-270.369 153.6639,-261.5723"/>
<polygon fill="#000000" stroke="#000000" points="156.7738,-259.9612 149.3388,-252.4133 150.4441,-262.9503 156.7738,-259.9612"/>
</g>
<!-- [root] meta.count&#45;boundary (EachMode fixup)&#45;&gt;[root] aws_subnet.subnet1 -->
<g id="edge8" class="edge">
<title>[root] meta.count&#45;boundary (EachMode fixup)&#45;&gt;[root] aws_subnet.subnet1</title>
<path fill="none" stroke="#000000" d="M212.5609,-288.3868C233.3425,-278.7334 259.3147,-266.6689 281.5138,-256.3571"/>
<polygon fill="#000000" stroke="#000000" points="283.1757,-259.4444 290.7705,-252.0572 280.2267,-253.0958 283.1757,-259.4444"/>
</g>
<!-- [root] provider.aws (close) -->
<g id="node8" class="node">
<title>[root] provider.aws (close)</title>
<ellipse fill="none" stroke="#000000" cx="471.6437" cy="-306" rx="104.3276" ry="18"/>
<text text-anchor="middle" x="471.6437" y="-301.8" font-family="Times,serif" font-size="14.00" fill="#000000">[root] provider.aws (close)</text>
</g>
<!-- [root] provider.aws (close)&#45;&gt;[root] aws_instance.terraform_server -->
<g id="edge9" class="edge">
<title>[root] provider.aws (close)&#45;&gt;[root] aws_instance.terraform_server</title>
<path fill="none" stroke="#000000" d="M480.2233,-287.8314C483.9795,-279.8771 488.4694,-270.369 492.6234,-261.5723"/>
<polygon fill="#000000" stroke="#000000" points="495.8433,-262.9503 496.9485,-252.4133 489.5135,-259.9612 495.8433,-262.9503"/>
</g>
<!-- [root] provider.aws (close)&#45;&gt;[root] aws_security_group.subnetsecurity -->
<g id="edge10" class="edge">
<title>[root] provider.aws (close)&#45;&gt;[root] aws_security_group.subnetsecurity</title>
<path fill="none" stroke="#000000" d="M406.6436,-291.861C357.1794,-281.1014 288.4389,-266.1488 233.2291,-254.1394"/>
<polygon fill="#000000" stroke="#000000" points="233.9534,-250.7152 223.4379,-252.0096 232.4655,-257.5553 233.9534,-250.7152"/>
</g>
<!-- [root] provider.aws (close)&#45;&gt;[root] aws_subnet.subnet1 -->
<g id="edge11" class="edge">
<title>[root] provider.aws (close)&#45;&gt;[root] aws_subnet.subnet1</title>
<path fill="none" stroke="#000000" d="M437.9916,-288.937C419.0021,-279.3085 395.0297,-267.1535 374.4647,-256.7262"/>
<polygon fill="#000000" stroke="#000000" points="375.7877,-253.4728 365.2858,-252.0721 372.622,-259.7161 375.7877,-253.4728"/>
</g>
<!-- [root] root -->
<g id="node9" class="node">
<title>[root] root</title>
<ellipse fill="none" stroke="#000000" cx="322.6437" cy="-378" rx="46.8976" ry="18"/>
<text text-anchor="middle" x="322.6437" y="-373.8" font-family="Times,serif" font-size="14.00" fill="#000000">[root] root</text>
</g>
<!-- [root] root&#45;&gt;[root] meta.count&#45;boundary (EachMode fixup) -->
<g id="edge12" class="edge">
<title>[root] root&#45;&gt;[root] meta.count&#45;boundary (EachMode fixup)</title>
<path fill="none" stroke="#000000" d="M293.4036,-363.7751C272.5058,-353.6086 243.9793,-339.7308 220.1223,-328.1248"/>
<polygon fill="#000000" stroke="#000000" points="221.4209,-324.8643 210.8974,-323.6369 218.3586,-331.159 221.4209,-324.8643"/>
</g>
<!-- [root] root&#45;&gt;[root] provider.aws (close) -->
<g id="edge13" class="edge">
<title>[root] root&#45;&gt;[root] provider.aws (close)</title>
<path fill="none" stroke="#000000" d="M352.0813,-363.7751C373.5894,-353.3819 403.1241,-339.1101 427.4572,-327.3519"/>
<polygon fill="#000000" stroke="#000000" points="429.0197,-330.4841 436.5008,-322.9818 425.9741,-324.1814 429.0197,-330.4841"/>
</g>
</g>
</svg>
